<?xml version="1.0" encoding="UTF-8"?>
<!DOCTYPE svg PUBLIC "-//W3C//DTD SVG 1.1//EN" "http://www.w3.org/Graphics/SVG/1.1/DTD/svg11.dtd">
<!-- Creator: CorelDRAW -->
<svg xmlns="http://www.w3.org/2000/svg" xml:space="preserve" width="148.356mm" height="145.35mm" version="1.1" style="shape-rendering:geometricPrecision; text-rendering:geometricPrecision; image-rendering:optimizeQuality; fill-rule:evenodd; clip-rule:evenodd"
viewBox="0 0 15478.62 15165"
 xmlns:xlink="http://www.w3.org/1999/xlink"
 xmlns:xodm="http://www.corel.com/coreldraw/odm/2003">
 <defs>
  <style type="text/css">
   <![CDATA[
    .fil0 {fill:white}
   ]]>
  </style>
 </defs>
 <g id="Layer_x0020_1">
  <metadata id="CorelCorpID_0Corel-Layer"/>
  <path class="fil0" d="M4408.36 7203.6l1272.59 20.52c328.4,-20.52 738.92,20.52 779.96,431.04 20.52,123.16 0,246.3 -102.62,348.94 -143.68,164.2 -369.46,184.72 -595.24,205.25l0 0 -1334.16 0 0 0c-1067.33,-123.15 -1826.77,-266.83 -2709.37,-964.7 -821.02,-656.82 -1436.79,-1580.46 -1642.04,-2647.79 -184.73,-923.64 -41.06,-1929.4 451.56,-2770.94 410.5,-677.34 1005.74,-1211 1724.14,-1518.89 1169.96,-492.61 2524.64,-369.46 3612.49,205.26 1026.28,554.19 1724.14,1395.74 2093.6,2504.11 287.36,862.07 328.41,1744.67 328.41,2627.27l-102.63 3263.55 0 0c0,205.26 20.53,431.04 0,636.29 0,1457.3 102.63,2709.36 1231.53,3735.64 903.12,821.02 2257.81,1149.43 3427.77,677.34 574.71,-246.3 1026.27,-656.82 1313.62,-1211 184.73,-328.41 287.36,-697.87 328.41,-1067.33 143.68,-1477.84 -800.5,-2873.57 -2134.65,-3427.76 -205.26,-102.62 -389.98,-184.73 -389.98,-513.14 0,-266.84 225.78,-492.62 492.61,-492.62 123.16,0 184.73,20.53 184.73,41.06 410.5,143.68 800.5,369.46 1190.48,677.34 821.02,656.82 1395.74,1600.99 1580.46,2647.79 164.21,903.12 41.06,1908.87 -451.56,2729.89 -595.24,944.18 -1477.84,1580.46 -2565.69,1765.19 -944.17,164.2 -1949.92,-20.52 -2770.94,-472.09 -1026.28,-554.18 -1724.14,-1375.2 -2093.6,-2483.58 -287.36,-841.55 -348.94,-1744.67 -328.41,-2647.79 20.52,-431.04 0,-862.07 20.52,-1293.11 41.06,-431.03 20.53,-882.6 41.06,-1313.62 20.52,-102.63 0,-205.26 0,-307.89 0,-123.15 20.52,-225.78 20.52,-328.4 20.53,-205.26 0,-431.04 0,-636.29 20.53,-677.34 -20.52,-1375.2 -184.72,-2011.5 -164.2,-656.82 -472.09,-1272.58 -985.23,-1703.62 -697.86,-595.24 -1539.4,-964.7 -2463.06,-923.64 -759.44,61.57 -1477.84,389.98 -1970.45,964.7 -738.92,821.02 -882.6,1908.86 -492.61,2894.09 554.18,1498.36 1662.56,2216.75 3222.5,2360.43z"/>
 </g>
</svg>
