<?xml version="1.0" encoding="UTF-8"?>
<!DOCTYPE svg PUBLIC "-//W3C//DTD SVG 1.1//EN" "http://www.w3.org/Graphics/SVG/1.1/DTD/svg11.dtd">
<!-- Creator: CorelDRAW -->
<svg xmlns="http://www.w3.org/2000/svg" xml:space="preserve" width="260.955mm" height="71.6024mm" version="1.1" style="shape-rendering:geometricPrecision; text-rendering:geometricPrecision; image-rendering:optimizeQuality; fill-rule:evenodd; clip-rule:evenodd"
viewBox="0 0 7771.13 2132.29"
 xmlns:xlink="http://www.w3.org/1999/xlink"
 xmlns:xodm="http://www.corel.com/coreldraw/odm/2003">
 <defs>
  <style type="text/css">
   <![CDATA[
    .fil1 {fill:#FEFEFE}
    .fil0 {fill:#FEFEFE;fill-rule:nonzero}
   ]]>
  </style>
 </defs>
 <g id="Layer_x0020_1">
  <metadata id="CorelCorpID_0Corel-Layer"/>
  <g id="_105553409161984">
   <path class="fil0" d="M877.04 2127.85l-0.31 -230.58 -71.27 0 0 -44.35 191.95 0 0 44.35 -70.64 0 0.31 230.58 -50.35 0 0.31 0zm399.09 -274.93l50.04 0 0 274.93 -50.04 0 0 -274.93zm350.93 274.93l0 -274.93 49.73 0 0.31 230.58 117.52 0 0.31 44.34 -167.87 0zm448.5 0l0 -274.93 183.08 0 -0.31 44.35 -132.71 0 0.31 70.31 125.43 0.31 -0.31 44.04 -125.43 0 0.31 71.58 132.71 0 -0.31 44.34 -182.75 0 -0.02 0zm565.7 4.43c-17.43,0 -33.57,-3.17 -48.47,-9.51 -14.88,-6.34 -27.56,-15.21 -38.32,-26.61 -10.77,-11.4 -18.69,-24.7 -23.44,-39.91l41.82 -18.05c6.65,15.83 16.16,28.18 28.83,37.05 12.66,8.87 26.61,13.3 42.44,13.3 8.87,0 16.47,-1.26 23.13,-4.12 6.65,-2.86 11.73,-6.65 15.21,-11.73 3.48,-5.07 5.39,-10.77 5.39,-17.74 0,-8.23 -2.53,-14.88 -7.29,-20.27 -4.75,-5.39 -12.04,-9.51 -21.53,-12.35l-52.57 -16.79c-21.53,-6.65 -37.69,-16.47 -48.47,-29.78 -10.77,-13.3 -16.16,-28.82 -16.16,-46.87 0,-15.83 3.79,-29.78 11.73,-41.82 7.92,-12.04 18.69,-21.53 32.62,-28.18 13.95,-6.65 29.78,-10.13 47.83,-10.13 16.47,0 31.66,2.86 45.3,8.56 13.95,5.7 25.66,13.62 35.48,24.08 10.13,10.13 17.43,22.17 22.49,36.1l-41.18 18.38c-5.39,-13.62 -13.62,-24.39 -24.39,-32 -10.77,-7.61 -23.44,-11.4 -37.69,-11.4 -8.23,0 -15.83,1.26 -22.17,4.12 -6.34,2.86 -11.4,6.65 -14.88,11.73 -3.48,5.08 -5.39,11.09 -5.39,17.74 0,7.61 2.53,14.26 7.29,19.96 5.07,5.7 12.35,10.13 22.48,13.62l50.36 15.83c21.86,7.29 38.32,17.1 49.4,29.45 11.09,12.66 16.47,27.87 16.47,46.56 0,15.83 -4.12,29.78 -12.04,41.82 -8.23,12.04 -19.32,21.53 -33.57,28.51 -14.26,6.96 -30.73,10.44 -49.73,10.44l-0.95 0zm877.68 -4.43l0 -274.93 115.92 0c18.05,0 33.88,3.17 46.56,9.51 12.99,6.34 22.81,15.21 29.78,26.61 6.96,11.4 10.45,25.34 10.45,41.49 0,12.66 -3.48,24.39 -10.13,35.16 -6.65,11.09 -17.43,19.96 -32.31,27.23l0 -23.12c13.62,5.07 24.08,11.73 32,19.32 7.92,7.6 13.3,16.16 16.47,25.34 3.17,9.51 4.75,19.31 4.75,29.45 0,26.3 -8.56,46.88 -25.97,61.77 -17.43,14.88 -41.49,22.49 -72.22,22.49l-115.92 0 0.62 -0.31zm50.38 -44.34l70.95 0c12.99,0 23.44,-3.48 31.04,-10.77 7.61,-7.29 11.73,-16.79 11.73,-28.83 0,-12.04 -3.79,-21.86 -11.73,-29.14 -7.61,-7.29 -18.05,-11.08 -31.04,-11.08l-70.95 0 0 80.13 0 -0.31zm0 -123.84l68.42 0c10.44,0 18.69,-3.17 24.7,-9.18 6.01,-6.01 9.18,-13.95 9.18,-23.44 0,-9.51 -3.17,-17.1 -9.18,-22.81 -6.01,-5.7 -14.26,-8.56 -24.7,-8.56l-68.42 0 0 63.99zm430.45 168.18l94.7 -274.93 64.92 0 94.7 274.93 -54.48 0 -19.64 -58.91 -106.43 0 -19.96 58.91 -54.17 0 0.35 0zm88.67 -103.26l77.61 0 -45.92 -136.83 13.94 0 -45.61 136.83 -0.02 0zm475.43 103.26l-0.31 -230.58 -71.26 0 0 -44.35 191.95 0 0 44.35 -70.64 0 0.31 230.58 -50.04 0zm398.76 0l0 -274.93 49.73 0 0.31 120.04 117.19 0.31 -0.31 -120.36 50.36 0 0.31 274.93 -50.35 0 -0.31 -110.86 -117.19 0 0.31 110.86 -50.36 0 0.31 0zm569.82 0l-73.79 -274.93 53.84 0 57.96 234.39 -13.95 0 60.49 -234.39 51.95 0 60.18 234.39 -13.95 0 57.96 -234.39 53.84 0 -73.79 274.93 -57.65 0 -60.82 -228.05 16.16 0 -60.82 228.05 -57.65 0 0.04 0zm535.9 0l94.7 -274.93 64.93 0 94.7 274.93 -54.48 0 -19.64 -58.91 -106.43 0 -19.96 58.91 -54.17 0 0.35 0zm88.69 -103.26l77.6 0 -45.61 -136.83 13.94 0 -45.61 136.83 -0.33 0zm444.7 103.26l0 -274.93 102.31 0c18.69,0 35.16,3.48 49.73,10.13 14.26,6.65 25.66,16.47 33.88,29.45 8.23,12.99 12.04,28.51 12.04,47.19 0,19 -4.43,35.16 -13.62,48.14 -8.87,13.3 -20.91,23.12 -36.43,29.45l63.04 110.22 -56.7 0 -67.47 -120.68 32.62 19.31 -69.05 0 0 101.35 -50.04 0 -0.31 0.37zm50.04 -145.7l52.9 0c9.18,0 17.1,-1.91 23.75,-5.39 6.65,-3.48 11.73,-8.56 15.52,-14.88 3.79,-6.34 5.39,-13.62 5.39,-22.17 0,-8.56 -1.91,-16.16 -5.39,-22.17 -3.79,-6.34 -8.87,-11.09 -15.52,-14.88 -6.65,-3.48 -14.57,-5.39 -23.75,-5.39l-52.9 0 0 84.88zm441.84 145.7l0 -274.93 183.08 0 -0.31 44.35 -132.71 0 0.31 70.31 125.43 0.31 -0.31 44.04 -125.43 0 0.31 71.58 132.71 0 -0.31 44.34 -182.75 0 -0.02 0zm-3948.44 -92.48c-8.87,0 -17.1,-1.91 -24.08,-6.01 -7.29,-4.12 -12.99,-9.82 -17.1,-17.1 -4.12,-7.29 -6.34,-15.52 -6.01,-24.7 0,-8.56 1.91,-16.47 6.01,-23.44 4.12,-6.96 9.82,-12.35 16.79,-16.47 7.29,-4.12 15.21,-6.01 24.7,-6.01 8.87,0 16.47,1.91 23.44,6.01 6.65,4.12 12.35,9.51 16.16,16.79 4.12,6.96 6.01,14.88 6.34,23.13 0,9.18 -1.91,17.42 -6.01,24.7 -4.12,7.29 -9.51,12.99 -16.47,17.1 -6.96,4.12 -14.88,6.01 -23.44,6.01l-0.33 0z"/>
   <path class="fil1" d="M3860.38 824.48l112.75 2.53c28.18,-2.22 64.3,1.26 68.74,36.74 1.26,11.4 -1.27,22.49 -9.18,31.35 -13.31,15.21 -33.88,16.78 -52.26,19l-1.26 0 -116.25 -1.58 -0.64 0c-94.39,-10.13 -160.58,-22.48 -237.87,-83.62 -73.79,-58.27 -126.38,-140 -144.75,-233.13 -16.16,-82.66 -4.12,-171.35 39.27,-245.15 35.17,-59.55 87.74,-105.48 151.4,-132.39 102.62,-43.39 221.4,-33.57 317.69,17.74 90.91,48.47 152.35,122.26 184.66,219.82 25.01,75.39 29.14,152.99 28.82,231.84l-8.23 286.32 0 0.31c-1.26,18.69 0.31,37.38 0.31,56.05 -0.64,127.96 7.6,238.5 108,329.09 79.49,71.91 198.6,101.99 300.91,58.91 50.36,-21.22 90.27,-57.96 116.56,-105.79 15.83,-29.45 25.66,-61.13 28.83,-94.39 12.99,-129.87 -70.31,-253.08 -187.52,-302.17 -19.65,-8.23 -35.79,-16.47 -35.79,-44.04 0,-24.08 19.64,-44.34 43.7,-43.7 10.44,0.31 15.83,2.53 16.47,2.86 36.43,13.95 70.95,33.57 104.84,60.82 72.84,57.96 122.57,139.69 139.05,231.85 14.88,81.08 3.17,169.45 -40.54,241.35 -51,83.62 -129.54,139.36 -225.83,155.52 -82.35,13.62 -170.71,-2.53 -243.57,-41.49 -89.64,-48.14 -152.04,-121.62 -184.66,-218.23 -25.34,-75.06 -30.4,-154.26 -27.87,-233.44 1.27,-38.31 -1.58,-76.65 1.58,-114.97 3.17,-38 0.64,-76.34 3.79,-114.34 0.95,-9.51 -0.31,-18.69 -0.31,-28.18 0,-9.51 1.27,-18.69 1.91,-28.18 1.27,-18.69 -0.31,-37.69 0,-56.38 1.27,-58.92 -2.53,-120.05 -17.1,-177.05 -14.57,-57.34 -40.86,-111.82 -86.14,-150.44 -60.82,-51.62 -135.57,-84.88 -217.27,-79.82 -65.88,4.12 -129.23,34.21 -173.57,83.93 -64.3,72.22 -76.65,167.87 -43.7,255.92 49.09,130.49 147.27,195.1 284.43,207.14l0.6 -0.62z"/>
   <path class="fil0" d="M4342.77 343.99l0 267.96 0 244.21c0,13.62 4.75,24.7 13.62,33.88 8.87,9.18 19.32,13.62 32,13.62 12.99,0 24.39,-4.44 33.88,-13.62 9.51,-9.18 14.57,-20.6 14.57,-33.88l0 -244.21 0 -267.96 0 -244.21c0,-13.62 -4.74,-24.7 -14.57,-33.88 -9.51,-9.18 -20.91,-13.62 -33.88,-13.62 -12.66,0 -23.13,4.44 -32,13.62 -8.87,9.18 -13.62,20.6 -13.62,33.88l0 244.21zm-4238.58 265.43c3.79,30.09 12.66,57.65 26.61,83.31 13.95,25.65 31.67,47.51 53.22,66.21 21.53,18.38 45.92,33.26 73.17,44.04 27.56,10.44 56.69,15.83 87.43,15.83 35.16,0 68.73,-6.65 100.73,-20.27 32,-13.62 57.96,-32.62 78.23,-57.01 16.47,-12.04 32,-15.52 46.87,-10.13 8.56,2.86 15.83,9.18 21.53,18.69 6.34,8.56 9.51,19 9.18,31.04 -0.31,12.04 -6.01,22.81 -17.1,32.62 -25.96,27.87 -58.6,51.31 -98.51,70.31 -39.91,19.01 -86.79,28.83 -141.27,28.83 -47.52,0 -92.17,-9.18 -133.66,-27.23 -41.82,-18.05 -78.23,-42.44 -109.6,-73.79 -31.35,-31.35 -55.74,-68.09 -73.79,-109.91 -18.05,-41.82 -27.23,-86.79 -27.23,-134.61 0,-47.52 9.18,-92.17 27.23,-133.97 18.05,-41.49 42.75,-77.92 73.79,-109.6 31.35,-31.35 67.78,-55.74 109.6,-73.79 41.49,-18.05 86.14,-27.23 133.66,-27.23 47.19,0 91.53,8.87 133.66,26.61 41.82,17.74 78.56,42.13 109.6,73.17 31.04,30.73 55.74,67.14 73.79,108.96 18.38,41.49 27.56,85.83 28.18,132.71 0,12.99 -4.12,23.75 -12.66,32.62 -8.56,8.56 -19.31,12.99 -32.95,12.99l-420.62 0 -2.53 0c-21.86,0 -39.6,-17.74 -39.6,-39.91 0,-21.86 17.74,-39.91 39.6,-39.91l3.17 0 369.63 0c-3.48,-30.73 -12.04,-58.91 -26.3,-84.88 -14.26,-25.66 -32.62,-48.47 -54.79,-67.78 -22.17,-19.32 -47.52,-34.21 -75.7,-44.97 -28.51,-10.77 -58.6,-16.16 -90.27,-16.16 -32.3,0 -62.71,5.39 -90.91,16.47 -28.51,11.09 -53.53,25.96 -75.39,44.97 -21.86,18.69 -39.6,41.49 -53.53,67.78l-5.7 11.4 -0.31 0c0,0 -33.26,54.79 -16.16,152.66l-0.64 0 0.33 -0.04zm795.01 -378.51l412.71 0c12.99,0 24.39,4.43 33.57,13.62 9.51,9.18 13.95,20.27 13.95,33.26 0,12.35 -4.43,23.44 -13.3,32.62 -8.87,9.51 -20.6,14.26 -34.52,14.26l-412.71 0 0 249.27c0,34.52 6.34,66.21 19.65,95.96 12.99,29.45 31.04,55.12 53.84,76.97 22.81,21.53 49.4,38.64 80.13,51.31 30.4,12.66 63.35,18.69 98.51,18.69 31.66,0 60.82,-4.43 87.1,-13.62 26.3,-9.18 51.31,-24.39 75.39,-45.61l8.56 -6.96 10.13 -5.39c7.29,-2.86 15.21,-4.12 23.44,-3.48 8.56,0.64 15.83,4.44 22.81,11.4 5.39,4.75 9.18,10.44 11.4,16.47 2.22,6.34 2.86,12.66 2.53,19.31 -0.64,6.65 -2.22,13.62 -5.39,19.96 -3.17,6.65 -7.29,12.04 -12.04,16.78 -29.45,28.18 -63.04,49.4 -101.04,63.99 -38,14.57 -78.87,21.86 -122.89,21.86 -47.52,0 -92.48,-8.56 -134.61,-25.97 -42.13,-17.42 -78.87,-41.49 -110.22,-71.91 -31.35,-30.4 -55.74,-66.21 -73.79,-107.69 -18.05,-41.18 -27.23,-85.52 -27.23,-133.35l0 -524.19c0,-13.62 4.43,-24.7 13.62,-34.21 9.18,-9.51 20.26,-14.26 33.26,-14.26 13.62,0 24.7,4.43 33.57,13.62 8.87,9.18 13.3,20.6 13.3,34.83l0 181.18 0.29 1.28zm656.28 378.51c3.79,30.09 12.66,57.65 26.61,83.31 13.95,25.65 31.66,47.51 53.22,66.21 21.53,18.38 45.61,33.26 73.17,44.04 27.56,10.44 56.7,15.83 87.43,15.83 35.17,0 68.74,-6.65 100.73,-20.27 32,-13.62 57.96,-32.62 78.23,-57.01 16.47,-12.04 32,-15.52 46.87,-10.13 8.56,2.86 15.83,9.18 21.53,18.69 6.34,8.56 9.51,19 9.18,31.04 -0.31,12.04 -6.01,22.81 -17.1,32.62 -25.96,27.87 -58.6,51.31 -98.51,70.31 -39.6,19.01 -86.78,28.83 -141.26,28.83 -47.83,0 -92.17,-9.18 -133.97,-27.23 -41.49,-18.05 -78.23,-42.44 -109.6,-73.79 -31.35,-31.35 -55.74,-68.09 -73.79,-109.91 -18.05,-41.82 -27.23,-86.79 -27.23,-134.61 0,-47.52 9.18,-92.17 27.23,-133.97 18.05,-41.49 42.75,-77.92 73.79,-109.6 31.35,-31.35 67.78,-55.74 109.6,-73.79 41.49,-18.05 86.14,-27.23 133.97,-27.23 47.19,0 91.86,8.87 133.66,26.61 41.82,17.74 78.56,42.13 109.6,73.17 31.04,30.73 55.74,67.14 73.79,108.96 18.38,41.49 27.56,85.83 28.18,132.71 0,12.99 -4.12,23.75 -12.35,32.62 -8.56,8.56 -19.65,12.99 -32.95,12.99l-420.62 0 -2.53 0c-21.86,0 -39.6,-17.74 -39.6,-39.91 0,-21.86 17.74,-39.91 39.6,-39.91l3.17 0 369.62 0c-3.48,-30.73 -12.04,-58.91 -26.3,-84.88 -14.26,-25.66 -32.62,-48.47 -54.79,-67.78 -22.17,-19.32 -47.51,-34.21 -76.01,-44.97 -28.51,-10.77 -58.6,-16.16 -90.27,-16.16 -32.3,0 -62.39,5.39 -90.91,16.47 -28.51,11.09 -53.53,25.96 -75.39,44.97 -21.86,18.69 -39.6,41.49 -53.53,67.78l-5.7 11.4 -0.64 0c0,0 -33.26,54.79 -16.16,152.66l-0.64 0 0.66 -0.04zm811.47 246.1c0,13.62 -4.44,24.7 -13.31,33.57 -8.87,8.87 -19.64,13.62 -32.3,13.62 -13.62,0 -24.7,-4.75 -34.21,-13.62 -9.51,-8.87 -14.26,-19.96 -14.26,-33.57l0 -265.43c0,-49.4 9.51,-95.65 28.18,-139.36 18.69,-43.7 44.34,-81.4 76.65,-114.03 32.3,-32.62 70,-58.27 113.39,-77.28 43.39,-19 89.64,-28.51 138.74,-28.51l1.58 0 3.48 0c15.52,0 27.56,4.43 36.1,12.99 8.56,8.56 12.99,19.64 12.99,33.26 0,13.62 -4.43,24.7 -13.95,33.88 -9.18,9.18 -21.22,13.62 -35.16,13.62l-4.43 0 -0.64 0c-35.48,0 -69.36,6.96 -101.35,20.6 -32,13.62 -59.87,32.31 -83.93,56.7 -23.75,24.08 -42.75,52.57 -56.7,84.57 -13.94,32.31 -20.91,66.83 -20.91,103.26l0 265.43 0.04 0.31zm485.25 -302.17l0 303.75c0,13.62 -4.12,24.39 -12.66,33.57 -8.23,8.87 -19.64,13.62 -33.57,13.62 -12.66,0 -23.75,-4.43 -33.26,-13.62 -9.51,-8.87 -14.57,-19.96 -14.57,-33.57l0 -304.39c0,-45.61 8.23,-88.69 24.7,-128.6 16.47,-39.91 38.96,-74.75 67.78,-104.84 28.51,-29.78 62.71,-53.53 101.66,-70.64 38.96,-17.43 81.4,-25.96 127.32,-25.96 45.3,0 87.1,8.56 125.74,25.66 38.32,17.1 71.58,40.53 99.45,70.31 27.56,30.09 49.4,64.93 65.57,104.84 15.83,39.91 23.75,82.66 23.75,128.6l0 0.64 0 2.86 0 301.53c0,13.62 -4.43,24.39 -12.99,33.57 -8.56,8.87 -19.32,13.62 -32.31,13.62 -13.62,0 -24.7,-4.43 -34.21,-13.62 -9.51,-8.87 -14.26,-19.96 -14.26,-33.57l0 -301.53 1.27 -7.29c-0.95,-31.66 -6.96,-61.77 -18.05,-89.96 -11.09,-28.18 -26.61,-52.57 -45.92,-73.48 -19.64,-20.91 -42.75,-37.69 -69.69,-49.73 -26.92,-12.35 -56.38,-18.38 -88.05,-18.38 -32.31,0 -62.4,6.01 -89.65,18.05 -27.56,12.04 -51.62,28.51 -71.58,49.4 -20.27,20.91 -36.43,45.61 -47.83,73.79 -11.73,28.18 -17.42,58.6 -18.05,91.53l0 3.48 0 0.64 -0.6 -0.27z"/>
   <path class="fil0" d="M6086.41 906.52c-41.82,-6.01 -80.77,-19.65 -116.87,-40.54 -51.31,-29.45 -91.22,-70.95 -120.36,-124.17 -28.82,-53.22 -43.39,-113.08 -43.39,-179.91 0,-66.83 14.57,-127.01 43.39,-179.91 28.83,-53.22 69.05,-94.39 120.36,-124.17 36.1,-20.91 74.75,-34.21 116.87,-40.53l0 83.3c-25.65,5.08 -49.4,14.26 -71.26,26.92 -37.05,21.53 -65.88,52.57 -86.79,92.8 -20.91,40.22 -31.35,87.43 -31.35,141.58 0,53.53 10.44,100.4 31.35,140.95 20.91,40.54 50.04,71.58 86.79,93.13 21.86,12.99 45.92,21.86 71.26,26.92l0 83.62 0 0.02z"/>
   <path class="fil0" d="M6193.78 216.98c42.44,6.01 81.71,19.65 117.83,40.87 50.68,29.45 90.27,70.95 119.09,124.17 29.14,53.22 43.39,113.08 43.39,179.91 0,66.83 -14.57,127.01 -43.39,179.91 -28.82,53.21 -68.74,94.39 -119.09,124.17 -36.1,21.22 -75.39,34.84 -117.83,40.86l0 -83.62c25.97,-5.39 50.04,-14.57 72.22,-27.87 37.05,-21.86 65.88,-52.9 86.79,-93.13 20.91,-40.22 31.35,-87.1 31.35,-140.31 0,-54.17 -10.44,-101.35 -31.35,-141.58 -20.91,-40.22 -50.04,-71.26 -86.79,-92.8 -22.48,-12.99 -46.56,-22.17 -72.22,-27.23l0 -83.62 0 0.26z"/>
   <polygon class="fil0" points="7275.45,233.77 7275.45,902.71 7187.71,902.71 7187.71,369.02 6974.54,902.71 6896.31,902.71 6681.87,370.91 6681.87,902.71 6594.14,902.71 6594.14,233.77 6699.3,233.77 6936.84,795.65 7170.28,233.77 "/>
   <polygon class="fil0" points="7483.54,293.63 7483.54,526.12 7742.3,526.12 7742.3,593.9 7483.54,593.9 7483.54,831.44 7771.13,831.44 7771.13,902.71 7395.8,902.71 7395.8,222.04 7771.13,222.04 7771.13,293.63 "/>
   <polygon class="fil0" points="5686.06,222.04 5686.06,902.71 5597.06,902.71 5597.06,587.87 5251.49,587.87 5251.49,902.71 5163.44,902.71 5163.44,222.04 5251.49,222.04 5251.49,516.61 5597.06,516.61 5597.06,222.04 "/>
   <polygon class="fil1" points="7395.8,1045.57 7771.13,1045.57 7771.13,1117.14 7395.8,1117.14 "/>
  </g>
 </g>
</svg>
